HIERARCHY
ROOT Hips
{
	OFFSET 0.00 0.00 0.00
	CHANNELS 6 Xposition Yposition Zposition Xrotation Yrotation Zrotation
	JOINT LeftUpLeg
	{
		OFFSET 3.44811 0.00000 0.00000
		CHANNELS 3 Xrotation Yrotation Zrotation
		JOINT LeftLeg
		{
			OFFSET 0.00000 -16.89127 0.00000
			CHANNELS 3 Xrotation Yrotation Zrotation
			JOINT LeftFoot
			{
				OFFSET 0.00000 -16.21733 0.00000
				CHANNELS 3 Xrotation Yrotation Zrotation
				JOINT LeftToeBase
				{
					OFFSET 0.00000 -1.79183 6.68720
					CHANNELS 3 Xrotation Yrotation Zrotation
					End Site
					{
						OFFSET 0.00000 0.00000 2.95275
					}
				}
			}
		}
	}
	JOINT RightUpLeg
	{
		OFFSET -3.44811 0.00000 0.00000
		CHANNELS 3 Xrotation Yrotation Zrotation
		JOINT RightLeg
		{
			OFFSET 0.00000 -16.89127 0.00000
			CHANNELS 3 Xrotation Yrotation Zrotation
			JOINT RightFoot
			{
				OFFSET 0.00000 -16.21733 0.00000
				CHANNELS 3 Xrotation Yrotation Zrotation
				JOINT RightToeBase
				{
					OFFSET 0.00000 -1.79183 6.68720
					CHANNELS 3 Xrotation Yrotation Zrotation
					End Site
					{
						OFFSET 0.00000 0.00000 2.95275
					}
				}
			}
		}
	}
	JOINT Spine
	{
		OFFSET 0.00000 0.03937 0.00000
		CHANNELS 3 Xrotation Yrotation Zrotation
		JOINT Spine1
		{
			OFFSET 0.00000 10.84478 0.00000
			CHANNELS 3 Xrotation Yrotation Zrotation
			JOINT Neck
			{
				OFFSET 0.00000 8.84498 0.00000
				CHANNELS 3 Xrotation Yrotation Zrotation
				JOINT Head
				{
					OFFSET 0.00000 5.71605 0.00000
					CHANNELS 3 Xrotation Yrotation Zrotation
					End Site
					{
						OFFSET 0.00000 4.52755 0.00000
					}
				}
			}
			JOINT LeftShoulder
			{
				OFFSET 0.00000 8.84498 0.00000
				CHANNELS 3 Xrotation Yrotation Zrotation
				JOINT LeftArm
				{
					OFFSET 6.73125 -0.00002 0.00000
					CHANNELS 3 Xrotation Yrotation Zrotation
					JOINT LeftForeArm
					{
						OFFSET 11.19281 -0.00004 0.00000
						CHANNELS 3 Xrotation Yrotation Zrotation
						JOINT LeftHand
						{
							OFFSET 9.77593 -0.00004 0.00000
							CHANNELS 3 Xrotation Yrotation Zrotation
							JOINT LeftHandThumb
							{
								OFFSET 0.00000 0.00000 0.00000
								CHANNELS 3 Xrotation Yrotation Zrotation
								End Site
								{
									OFFSET 0.00000 0.00000 3.93700
								}
							}
							JOINT L_Wrist_End
							{
								OFFSET 3.93700 -0.00001 0.00000
								CHANNELS 3 Xrotation Yrotation Zrotation
							}
						}
					}
				}
			}
			JOINT RightShoulder
			{
				OFFSET 0.00000 8.84498 0.00000
				CHANNELS 3 Xrotation Yrotation Zrotation
				JOINT RightArm
				{
					OFFSET -6.73125 -0.00002 0.00000
					CHANNELS 3 Xrotation Yrotation Zrotation
					JOINT RightForeArm
					{
						OFFSET -11.19281 -0.00004 0.00000
						CHANNELS 3 Xrotation Yrotation Zrotation
						JOINT RightHand
						{
							OFFSET -9.77593 -0.00004 0.00000
							CHANNELS 3 Xrotation Yrotation Zrotation
							JOINT RightHandThumb
							{
								OFFSET 0.00000 0.00000 0.00000
								CHANNELS 3 Xrotation Yrotation Zrotation
								End Site
								{
									OFFSET 0.00000 0.00000 3.93700
								}
							}
							JOINT R_Wrist_End
							{
								OFFSET -5.39369 -0.00002 0.00000
								CHANNELS 3 Xrotation Yrotation Zrotation
							}
						}
					}
				}
			}
		}
	}
}
MOTION
Frames: 6
Frame Time: 0.066664
 55.3308 32.9633 9.9416 104.8222 -82.7707 108.9378 -18.1687 -4.7184 -8.9364 48.7964 -0.0000 0.0000 -29.6196 4.8034 11.7995 -13.9189 0.0000 0.0000 -16.7997 1.3065 -4.8332 50.2782 -0.0000 0.0000 -34.4676 7.9988 -2.6172 -21.8210 0.0000 0.0000 -3.0526 5.3787 -2.0939 4.8851 -2.4508 2.7151 10.2410 30.4425 0.0466 -9.6531 -4.0571 -5.2910 8.2550 8.3369 -5.2926 4.1056 -36.6271 -73.0784 -0.0001 -25.0783 -0.0000 -27.8959 17.1232 5.3322 -0.0000 0.0000 -0.0000 -0.0000 0.0000 -0.0000 8.5680 0.7589 1.6099 1.7005 18.1125 76.5207 -0.0001 27.2767 0.0000 -30.1234 -2.3845 -0.5780 -0.0000 0.0000 -0.0000 -0.0000 0.0000 -0.0000
 49.3956 37.0056 9.6477 80.1746 -86.8853 84.3947 1.4237 -4.7046 -5.4346 28.7206 0.0000 0.0000 4.6252 -2.8192 7.4072 -25.0458 0.0000 0.0000 6.1276 -2.4154 -5.6416 24.5168 -0.0000 0.0000 -1.4918 10.7187 1.5185 -31.6429 0.0000 0.0000 -7.2638 4.3022 -2.9629 4.8793 -3.6893 1.0715 15.1673 31.6210 -0.1444 -7.9848 -9.3560 -1.0705 8.6973 9.0289 -1.8181 8.3258 -35.7269 -74.6067 -0.0001 -26.3618 -0.0000 -26.1140 21.3137 -3.8271 -0.0000 0.0000 -0.0000 -0.0000 0.0000 -0.0000 9.6196 -0.5332 -1.8769 8.3532 14.7581 82.6496 -0.0001 31.3566 0.0000 -29.6715 -2.5164 4.5091 -0.0000 0.0000 -0.0000 -0.0000 0.0000 -0.0000
 45.3939 40.3800 9.2326 115.2152 -88.1137 116.0249 -3.0159 1.7475 0.5175 37.7370 -0.0000 0.0000 24.9390 -10.2128 -4.3998 -15.4099 -0.0000 -0.0000 3.1225 7.1750 -0.8651 36.9521 -0.0000 0.0000 17.5501 14.9752 13.5004 -22.6077 -0.0000 -0.0000 -7.8029 6.1864 -1.2499 7.7095 -1.7649 1.9065 19.0259 30.8670 -2.2844 -15.0971 -10.9595 -3.2931 8.9851 10.3142 -1.1481 4.8842 -33.1130 -75.3450 -0.0001 -29.3861 -0.0000 -28.0224 19.6576 0.7312 -0.0000 0.0000 -0.0000 -0.0000 0.0000 -0.0000 10.1670 0.9361 -2.2382 12.1059 15.2027 83.3969 -0.0002 36.3851 0.0001 -40.7489 0.2294 1.8373 -0.0000 0.0000 -0.0000 -0.0000 0.0000 -0.0000
 41.9679 42.0970 8.9168 83.5123 -86.4596 83.7522 -6.7042 2.0250 2.0200 29.2155 -0.0000 0.0000 16.2152 -3.9576 -2.9232 -15.6497 0.0000 -0.0000 0.1766 3.1863 -0.1375 31.8038 0.0000 0.0000 8.8770 4.8033 8.3468 -23.3024 0.0000 0.0000 -6.8035 5.0270 -2.5978 6.8749 -2.7263 1.7201 18.0803 30.9877 -1.2856 -11.5357 -8.9832 -3.4271 9.1496 10.4095 -0.4733 4.7649 -31.4244 -75.7582 -0.0001 -32.1691 -0.0000 -30.3798 19.0701 3.7054 -0.0000 0.0000 -0.0000 -0.0000 0.0000 -0.0000 9.7297 0.2541 -2.1020 8.7769 15.4451 82.5813 -0.0001 31.9710 0.0000 -33.7487 -2.4910 6.5939 -0.0000 0.0000 -0.0000 -0.0000 0.0000 -0.0000
 39.2053 42.1644 8.6733 94.5492 -82.4013 93.5650 -13.1607 4.9117 4.0276 17.4885 -0.0000 0.0000 10.5096 -2.1572 -1.0143 -16.8726 -0.0000 0.0000 -5.3082 -0.1722 0.8007 15.4634 0.0000 0.0000 -2.7675 1.4462 4.6794 -24.4497 0.0000 -0.0000 -5.4710 4.9903 -3.0618 6.7292 -2.4822 2.1044 17.3595 32.0072 -1.2910 -13.1459 -7.2320 -5.1653 8.7649 10.0626 -0.1215 1.8144 -36.7259 -76.0901 -0.0001 -30.2991 -0.0000 -25.6019 20.4153 4.3745 -0.0000 0.0000 -0.0000 -0.0000 0.0000 -0.0000 8.6804 0.9155 -1.4192 5.8555 16.8330 80.9044 -0.0001 31.3488 0.0000 -32.0693 -2.6866 6.8409 -0.0000 0.0000 -0.0000 -0.0000 0.0000 -0.0000
 36.8111 40.5061 8.4385 91.0567 -78.1915 89.1159 -24.0619 8.1230 5.4420 13.2976 -0.0000 0.0000 10.9819 -5.1256 -5.9015 -17.4888 0.0000 -0.0000 -16.3485 -2.4643 1.7377 9.7669 0.0000 0.0000 -7.9422 3.2533 5.0037 -26.6300 0.0000 -0.0000 -3.2763 4.1491 -3.8203 7.4490 -2.9942 2.5000 15.5196 32.3766 -0.0311 -15.7090 -5.1578 -7.5339 7.8593 8.8033 0.0222 -0.7075 -41.7481 -75.1318 -0.0001 -30.3075 -0.0000 -23.4207 21.6178 6.8930 -0.0000 0.0000 -0.0000 -0.0000 0.0000 -0.0000 7.5573 1.7077 -1.2329 2.0717 20.6817 80.0510 -0.0001 29.6796 0.0000 -28.8179 -2.1831 5.9931 -0.0000 0.0000 -0.0000 -0.0000 0.0000 -0.0000
